<svg fill="none" height="40" viewBox="0 0 260 40" width="260" xmlns="http://www.w3.org/2000/svg"><path d="m33.724 36.5809c4.0186-4.0187 6.2763-9.4691 6.2763-15.1523s-2.2577-11.1337-6.2763-15.15231c-4.0186-4.01864-9.4691-6.27628898-15.1523-6.27629s-11.13363 2.25764-15.15227 6.27628l7.07107 7.07102c1.1158 1.1158 2.9176 1.0601 4.3371.3708 1.156-.5613 2.4346-.861 3.7441-.861 2.2733 0 4.4535.9031 6.0609 2.5106 1.6075 1.6074 2.5105 3.7876 2.5105 6.0609 0 1.3095-.2996 2.5881-.8609 3.7441-.6893 1.4195-.745 3.2213.3707 4.3371z" fill="#297aff"/><path d="m30 40h-10.4902c-1.5155 0-2.969-.602-4.0406-1.6737l-13.79552-13.7955c-1.07164-1.0716-1.67368-2.5251-1.67368-4.0406v-10.4902z" fill="#34c2ff"/><path d="m10.7143 39.9999h-6.42859c-2.36693 0-4.28571-1.9187-4.28571-4.2857v-6.4286z" fill="#34c2ff"/><g fill="#0f2d5e"><path d="m244.137 6.9292c8.44 0 15.311 6.8715 15.311 15.3115v10.8301h-7.469v-10.8301c0-3.0996-1.867-5.7885-4.481-7.0582v17.8883h-7.469v-10.8301c0-3.0996-1.868-5.7885-4.482-7.0582v17.8883h-7.469v-26.1416h4.108c2.838 0 5.527.82159 7.843 2.20336v-2.20336z"/><path d="m225.112 22.2407c0 5.9752-4.893 10.8301-10.831 10.8301-5.975 0-10.83-4.8549-10.83-10.8301v-15.3115h7.469v15.3115c0 1.8673 1.494 3.3611 3.361 3.3611 1.83 0 3.362-1.4938 3.362-3.3611v-15.3115h7.469z"/><path d="m201.174 24.6682c0 4.5934-3.735 8.3279-8.328 8.3279h-11.092v-7.469h11.092c.448 0 .859-.3735.859-.8589 0-.4482-.411-.8216-.859-.8216h-3.025c-4.668 0-8.44-3.7719-8.44-8.44 0-4.6682 3.772-8.4774 8.44-8.4774h10.979v7.469h-10.979c-.56 0-.971.4482-.971 1.0084 0 .5228.411.9709.971.9709h3.025c4.593 0 8.328 3.7345 8.328 8.2907z"/><path d="m170.441 6.9292c5.229 0 9.523 4.2947 9.523 9.523 0 5.2657-4.294 9.523-9.523 9.523h-2.801v7.0956h-7.469v-26.1416zm0 11.577c1.121 0 2.054-.8963 2.054-2.054 0-1.1203-.933-2.054-2.054-2.054h-2.801v4.108z"/><path d="m156.809 33.0708h-7.469v-26.1416h7.469z"/><path d="m147.046 20c0 7.2076-5.901 13.0708-13.071 13.0708-7.208 0-13.071-5.8632-13.071-13.0708 0-7.1703 5.863-13.0708 13.071-13.0708 7.17 0 13.071 5.9005 13.071 13.0708zm-7.469 0c0-3.0623-2.54-5.6018-5.602-5.6018-3.1 0-5.602 2.5395-5.602 5.6018 0 3.0997 2.502 5.6018 5.602 5.6018 3.062 0 5.602-2.5021 5.602-5.6018z"/><path d="m118.731 18.3195v14.7513h-9.337c-7.207 0-13.0705-5.8632-13.0705-13.0708 0-7.1703 5.8635-13.0708 13.0705-13.0708h9.337v7.469h-9.337c-3.099 0-5.601 2.5395-5.601 5.6018 0 3.0997 2.502 5.6018 5.601 5.6018h1.868v-7.2823z"/><path d="m95.1128 20c0 7.2076-5.9006 13.0708-13.0708 13.0708-7.2077 0-13.0708-5.8632-13.0708-13.0708 0-7.1703 5.8631-13.0708 13.0708-13.0708 7.1702 0 13.0708 5.9005 13.0708 13.0708zm-7.4691 0c0-3.0623-2.5394-5.6018-5.6017-5.6018-3.0997 0-5.6018 2.5395-5.6018 5.6018 0 3.0997 2.5021 5.6018 5.6018 5.6018 3.0623 0 5.6017-2.5021 5.6017-5.6018z"/><path d="m68.2015 25.6018v7.469h-9.3363c-3.7345 0-6.7221-2.9876-6.7221-6.7221v-19.4195h7.469v18.6726z"/></g></svg>